<svg width="200" height="238" viewBox="0 0 200 238" fill="none" xmlns="http://www.w3.org/2000/svg">
<path d="M72.8424 211.486C72.8424 184.704 72.8424 159.46 72.8424 134.21C72.8424 132.443 72.8424 130.677 72.8424 128.11C48.5639 128.11 24.6476 128.11 0.337392 128.11C0.197605 125.403 0.0196945 123.478 0.0196945 121.552C0.000632624 84.547 -0.00572133 47.5479 0.0133405 10.5488C0.0196945 2.29498 2.06567 0.17276 10.0526 0.160052C35.119 0.134636 60.179 0.147344 85.2453 0.160052C86.8211 0.160052 88.3905 0.293485 90.3793 0.388794C90.3793 30.4875 90.3793 60.4146 90.3793 90.8437C84.845 90.8437 79.2281 90.8437 73.0203 90.8437C73.0203 67.2515 73.0203 43.6783 73.0203 19.4316C70.4088 19.2601 68.3311 19.0059 66.247 19.0059C53.3167 18.9741 40.3864 18.9169 27.4561 19.0313C20.8416 19.0948 18.1285 21.6237 18.1094 27.876C18.0332 54.1306 18.0776 80.3915 18.1031 106.646C18.1031 107.415 18.3 108.19 18.4907 109.562C42.3307 109.562 66.1263 109.562 90.3603 109.562C90.3603 152.223 90.3603 194.261 90.3603 236.305C52.8592 235.905 4.82964 201.441 0.458118 146.511C6.32282 146.511 12.1748 146.511 18.6876 146.511C24.7557 177.169 42.0765 199.045 72.8424 211.486Z" fill="black"/>
<path d="M109.155 237.544C109.155 157.675 109.155 79.3748 109.155 0.617535C115.001 0.617535 120.631 0.617535 127.074 0.617535C127.074 70.473 127.074 140.309 127.074 211.003C137.297 207.903 145.348 202.985 152.528 196.771C171.24 180.574 181.476 160.172 181.552 135.201C181.679 92.8389 181.578 50.477 181.578 8.12156C181.578 5.76424 181.578 3.40692 181.578 0.249005C185.841 0.249005 189.908 -0.443576 193.549 0.49681C195.887 1.10044 197.965 3.87076 199.471 6.12642C200.328 7.40356 199.89 9.60203 199.89 11.3875C199.903 53.349 200.087 95.3169 199.833 137.278C199.56 182.633 171.329 220.642 128.846 233.236C122.645 235.072 116.177 236.032 109.155 237.544Z" fill="black"/>
</svg>
