<svg width="1444" height="1088" viewBox="0 0 1444 1088" fill="none" xmlns="http://www.w3.org/2000/svg">
<path d="M0 25.6C0 16.6392 0 12.1587 1.7439 8.73615C3.27787 5.72556 5.72556 3.27787 8.73615 1.7439C12.1587 0 16.6392 0 25.6 0H1418.4C1427.36 0 1431.84 0 1435.26 1.7439C1438.27 3.27787 1440.72 5.72556 1442.26 8.73615C1444 12.1587 1444 16.6392 1444 25.6V60H0V25.6Z" fill="#F2F2F5"/>
<circle cx="26" cy="30" r="6" fill="#353535"/>
<circle cx="46" cy="30" r="6" fill="#353535"/>
<circle cx="66" cy="30" r="6" fill="#353535"/>
<path fill-rule="evenodd" clip-rule="evenodd" d="M1444 60H0V1072C0 1080.84 7.16343 1088 16 1088H1428C1436.84 1088 1444 1080.84 1444 1072V60ZM1442 62H2V1070C2 1078.84 9.16349 1086 18 1086H1426C1434.84 1086 1442 1078.84 1442 1070V62Z" fill="#F2F2F5"/>
</svg>
